# xmcd
#
# Track frame offsets:
# 150
# 12615
# 29685
# 42170
# 52945
# 63850
# 77560
# 86800
# 97360
# 111225
# 124230
# 134275
# 147060
# 159645
# 169085
# 184945
# 196050
# 209290
# 219580
# 231100
#
# Disc length: 3249 seconds
#
#
# Revision: 0
# Processed by: cddbd v1.5.2PL0 Copyright (c) Steve Scherf et al.
# Submitted via: FreeRIP 2.96 
#
DISCID=210caf14
DTITLE=Various Artist - Tribute To The Grand Ole Opry
DYEAR=2006
DGENRE=Country
TTITLE0=Stonewall Jackson - Me And You And A Dog Named Boo
TTITLE1=Ray Price - For The Good Times
TTITLE2=Porter Wagoner - The Carroll County Accident
TTITLE3=Kitty Wells - Heartbreak USA
TTITLE4=Hank Locklin - Send Me The Pillow That You Dream On
TTITLE5=Billy Walker - Cross The Brazos At Waco
TTITLE6=Jean Shephard - Second Fiddle To An Old Guitar
TTITLE7=Johnny Russell - Act Naturally
TTITLE8=Jennie Seely - Don't Touch Me
TTITLE9=Jack Greene - Statue Of A Fool
TTITLE10=Jan Howard - The One You Slip Around With
TTITLE11=Jim Ed Brown - Morning
TTITLE12=Connie Smith - The Hurtin's All Over
TTITLE13=Louvin Brothers - I Don't Believe You Meet My Baby
TTITLE14=Cal Smith - I Just Came Home To Count The Memories
TTITLE15=Little Jimmy Dickens - May The Bird Of Paridise Fly Up Your Nose
TTITLE16=Ferlin Husky - Country Music Is Here To Stay
TTITLE17=Jimmy C Newman - A Fallen Star
TTITLE18=Del Wood - Down Yonder
TTITLE19=Charlie Louvin and Grant Turner - I See A Bridge
EXTD=K-tel 
EXTT0=
EXTT1=
EXTT2=
EXTT3=
EXTT4=
EXTT5=
EXTT6=
EXTT7=
EXTT8=
EXTT9=
EXTT10=
EXTT11=
EXTT12=
EXTT13=
EXTT14=
EXTT15=
EXTT16=
EXTT17=
EXTT18=
EXTT19=
PLAYORDER=
